# File created by Blade
# Date/Time:  Wed Jan 21 17:21:31 2015
# Frame Rate: 120.000 fps
#------------------------------------------------------
:FULLY-SPECIFIED
:DEGREES
1406
root 21.127808 35.388474 -21.353166 -178.801008 -1.909328 -177.191323
Spine -11.061316 0.965459 4.042572
Head 5.588675 -2.243399 -2.164161
LeftShoulder -11.519168 -33.635692 20.387713
LeftArm -0.256115 2.483916 -2.017981
LeftForeArm 11.826785 -0.000000 0.144294
LeftHand -6.631674 -0.000000 3.460091
LeftHandThumb1 -26.253704 0.000000 33.147579
RightShoulder -10.700451 -0.681844 -14.114351
RightArm -2.482055 32.428992 2.729638
RightForeArm -34.748618 -0.000000 7.073796
RightHand -6.929175 -0.000000 0.705628
RightHandThumb1 -24.326973 -0.000000 -32.862282
LeftUpLeg 7.484139 7.352146 8.791111
LeftLeg -6.414068 -0.000000 0.000000
LeftFoot -18.144452 23.815792 -13.193417
LeftToeBase 26.149047 -0.000000 -0.000000
RightUpLeg 5.100632 -11.169579 0.116504
RightLeg -1.399582 -0.000000 0.000000
RightFoot -21.285932 -27.039430 16.068834
RightToeBase 26.013217 -0.000000 -0.000000
1407
root 21.036855 35.392744 -21.358654 -178.819761 -2.086962 -177.368181
Spine -10.979769 0.932104 3.815384
Head 5.525752 -2.491809 -2.041998
LeftShoulder -11.514906 -33.635804 20.534056
LeftArm -0.317243 2.480033 -1.995032
LeftForeArm 11.869532 -0.000000 0.048879
LeftHand -6.716207 -0.000000 3.289188
LeftHandThumb1 -26.253704 0.000000 33.147579
RightShoulder -10.819148 -0.475995 -14.259948
RightArm -3.044161 32.983114 2.527948
RightForeArm -35.030720 -0.000000 7.177534
RightHand -7.143214 -0.000000 0.637149
RightHandThumb1 -24.326973 -0.000000 -32.862282
LeftUpLeg 7.440942 7.019619 8.469064
LeftLeg -6.338103 -0.000000 0.000000
LeftFoot -18.219058 23.861342 -13.277589
LeftToeBase 26.081408 -0.000000 -0.000000
RightUpLeg 5.054157 -11.363232 -0.199789
RightLeg -1.208014 -0.000000 0.000000
RightFoot -21.355833 -27.062554 16.072935
RightToeBase 26.057655 -0.000000 -0.000000
1408
root 20.949081 35.398732 -21.363802 -178.793088 -2.269457 -177.551890
Spine -10.963021 0.926048 3.561476
Head 5.503837 -2.715614 -1.883374
LeftShoulder -11.527210 -33.630419 20.678318
LeftArm -0.317959 2.486538 -2.023289
LeftForeArm 11.958222 0.000000 -0.074806
LeftHand -6.815987 -0.000000 3.094132
LeftHandThumb1 -26.253704 0.000000 33.147579
RightShoulder -10.986394 -0.291434 -14.352156
RightArm -3.491271 33.416667 2.332483
RightForeArm -35.076050 0.000000 7.118651
RightHand -7.288605 -0.000000 0.519852
RightHandThumb1 -24.326973 -0.000000 -32.862282
LeftUpLeg 7.325725 6.743268 8.133023
LeftLeg -6.222593 -0.000000 0.000000
LeftFoot -18.306115 23.913203 -13.385513
LeftToeBase 26.022373 -0.000000 -0.000000
RightUpLeg 4.972284 -11.648864 -0.505256
RightLeg -1.040196 -0.000000 0.000000
RightFoot -21.394049 -27.057390 16.030254
RightToeBase 26.103892 -0.000000 -0.000000
1409
root 20.862284 35.404696 -21.365139 -178.738369 -2.430734 -177.712855
Spine -10.982815 0.895030 3.364315
Head 5.516478 -2.863372 -1.787892
LeftShoulder -11.539094 -33.672209 20.795953
LeftArm -0.376197 2.574172 -2.050787
LeftForeArm 12.081984 -0.000000 -0.201103
LeftHand -6.891775 -0.000000 2.858072
LeftHandThumb1 -26.253704 0.000000 33.147579
RightShoulder -11.065943 -0.133841 -14.500071
RightArm -3.971562 33.818038 2.186000
RightForeArm -35.062021 -0.000000 7.034291
RightHand -7.437070 0.000000 0.501789
RightHandThumb1 -24.326973 -0.000000 -32.862282
LeftUpLeg 7.183672 6.477795 7.820006
LeftLeg -6.096807 -0.000000 0.000000
LeftFoot -18.383918 23.950998 -13.443340
LeftToeBase 25.932175 -0.000000 -0.000000
RightUpLeg 4.837630 -11.911361 -0.785903
RightLeg -0.847365 -0.000000 0.000000
RightFoot -21.447855 -27.051637 16.067822
RightToeBase 26.300793 -0.000000 -0.000000
1410
root 20.777866 35.410777 -21.364332 -178.676023 -2.605825 -177.866214
Spine -10.994061 0.878359 3.173704
Head 5.453135 -3.089374 -1.690255
LeftShoulder -11.557827 -33.660592 20.908067
LeftArm -0.413664 2.549178 -2.151520
LeftForeArm 12.273668 -0.000000 -0.351703
LeftHand -6.960120 -0.000000 2.613031
LeftHandThumb1 -26.253704 0.000000 33.147579
RightShoulder -11.201012 -0.007885 -14.609413
RightArm -4.351846 34.298187 2.017479
RightForeArm -34.974327 0.000000 6.787138
RightHand -7.341909 -0.000000 0.649540
RightHandThumb1 -24.326973 -0.000000 -32.862282
LeftUpLeg 6.995911 6.231896 7.515269
LeftLeg -5.902586 -0.000000 0.000000
LeftFoot -18.476075 23.946600 -13.435028
LeftToeBase 25.872034 -0.000000 -0.000000
RightUpLeg 4.680974 -12.156747 -1.053668
RightLeg -0.618186 -0.000000 0.000000
RightFoot -21.508593 -27.015767 16.120929
RightToeBase 26.208435 -0.000000 -0.000000
